<svg width="16" height="16" viewBox="0 0 16 16" fill="none" xmlns="http://www.w3.org/2000/svg">
<g clip-path="url(#clip0_135_1858)">
<g filter="url(#filter0_f_135_1858)">
<path d="M3.22266 11.4766C4.6416 12.7883 8.53937 14.6248 12.7789 11.4766" stroke="#016FE8" stroke-opacity="0.2" stroke-width="4" stroke-linecap="round"/>
</g>
<g filter="url(#filter1_d_135_1858)">
<path d="M2.05469 1.30078C2.05469 1.02464 2.27855 0.800781 2.55469 0.800781H12.5692C12.8453 0.800781 13.0692 1.02464 13.0692 1.30078V11.3152C13.0692 11.5914 12.8453 11.8152 12.5692 11.8152H2.55469C2.27854 11.8152 2.05469 11.5914 2.05469 11.3152V1.30078Z" fill="url(#paint0_linear_135_1858)"/>
</g>
<path d="M7.33234 2.98991C7.39307 2.95444 7.46119 2.93351 7.53136 2.92877C7.60152 2.92403 7.67184 2.9356 7.73678 2.96258L7.79144 2.98991L10.2964 4.45101C10.3575 4.48653 10.4094 4.53576 10.4481 4.59481C10.4869 4.65386 10.5113 4.7211 10.5196 4.79123L10.5223 4.84452V7.77127C10.5223 7.84174 10.5059 7.91125 10.4745 7.97432C10.443 8.03738 10.3973 8.09229 10.3411 8.13472L10.2964 8.16478L7.79144 9.62587C7.73071 9.66135 7.66259 9.68227 7.59243 9.68701C7.52226 9.69175 7.45194 9.68018 7.387 9.6532L7.33234 9.62587L4.82735 8.16478C4.76632 8.12925 4.71439 8.08002 4.67565 8.02097C4.63692 7.96193 4.61245 7.89468 4.60417 7.82455L4.60144 7.77127V4.84452C4.60148 4.77404 4.61787 4.70454 4.64932 4.64147C4.68077 4.5784 4.72644 4.52349 4.78271 4.48107L4.82735 4.45101L7.33234 2.98991ZM5.05689 5.1105V7.77127L7.33416 9.09937V6.43906L5.05689 5.1105ZM10.0669 5.11005L7.78962 6.43861V9.09937L10.0669 7.77127V5.11005ZM7.56189 3.38297L5.28052 4.7138L7.56144 6.04373L9.8428 4.71289L7.56189 3.38297Z" fill="white"/>
<foreignObject x="5.93828" y="4.23906" width="9.8135" height="10.1637"><div xmlns="http://www.w3.org/1999/xhtml" style="backdrop-filter:blur(0.9px);clip-path:url(#bgblur_1_135_1858_clip_path);height:100%;width:100%"></div></foreignObject><g data-figma-bg-blur-radius="1.8">
<rect x="7.73828" y="6.03906" width="6.21346" height="6.56363" rx="1" fill="white" fill-opacity="0.2"/>
<rect x="7.83828" y="6.13906" width="6.01346" height="6.36363" rx="0.9" stroke="url(#paint1_linear_135_1858)" stroke-opacity="0.5" stroke-width="0.2"/>
</g>
<path d="M10.7275 7.62216C10.7585 7.604 10.7934 7.59329 10.8293 7.59086C10.8653 7.58844 10.9013 7.59436 10.9345 7.60817L10.9625 7.62216L12.2449 8.37018C12.2762 8.38837 12.3028 8.41358 12.3226 8.44381C12.3424 8.47403 12.355 8.50846 12.3592 8.54436L12.3606 8.57165V10.07C12.3606 10.1061 12.3522 10.1417 12.3361 10.174C12.32 10.2063 12.2966 10.2344 12.2678 10.2561L12.2449 10.2715L10.9625 11.0195C10.9314 11.0377 10.8965 11.0484 10.8606 11.0508C10.8247 11.0532 10.7887 11.0473 10.7554 11.0335L10.7275 11.0195L9.445 10.2715C9.41376 10.2533 9.38717 10.2281 9.36734 10.1979C9.34751 10.1676 9.33498 10.1332 9.33074 10.0973L9.32935 10.07V8.57165C9.32936 8.53556 9.33775 8.49998 9.35386 8.46769C9.36996 8.4354 9.39334 8.40729 9.42215 8.38557L9.445 8.37018L10.7275 7.62216ZM9.56252 8.70782V10.07L10.7284 10.75V9.38798L9.56252 8.70782ZM12.1274 8.70759L10.9616 9.38775V10.75L12.1274 10.07V8.70759ZM10.845 7.82339L9.67701 8.50472L10.8447 9.18559L12.0127 8.50426L10.845 7.82339Z" fill="white"/>
</g>
<defs>
<filter id="filter0_f_135_1858" x="-1.37734" y="6.87632" width="18.7564" height="10.9429" filterUnits="userSpaceOnUse" color-interpolation-filters="sRGB">
<feFlood flood-opacity="0" result="BackgroundImageFix"/>
<feBlend mode="normal" in="SourceGraphic" in2="BackgroundImageFix" result="shape"/>
<feGaussianBlur stdDeviation="1.3" result="effect1_foregroundBlur_135_1858"/>
</filter>
<filter id="filter1_d_135_1858" x="0.0546875" y="-0.199219" width="15.0144" height="15.0144" filterUnits="userSpaceOnUse" color-interpolation-filters="sRGB">
<feFlood flood-opacity="0" result="BackgroundImageFix"/>
<feColorMatrix in="SourceAlpha" type="matrix" values="0 0 0 0 0 0 0 0 0 0 0 0 0 0 0 0 0 0 127 0" result="hardAlpha"/>
<feOffset dy="1"/>
<feGaussianBlur stdDeviation="1"/>
<feComposite in2="hardAlpha" operator="out"/>
<feColorMatrix type="matrix" values="0 0 0 0 1 0 0 0 0 1 0 0 0 0 1 0 0 0 0.8 0"/>
<feBlend mode="normal" in2="BackgroundImageFix" result="effect1_dropShadow_135_1858"/>
<feBlend mode="normal" in="SourceGraphic" in2="effect1_dropShadow_135_1858" result="shape"/>
</filter>
<clipPath id="bgblur_1_135_1858_clip_path" transform="translate(-5.93828 -4.23906)"><rect x="7.73828" y="6.03906" width="6.21346" height="6.56363" rx="1"/>
</clipPath><linearGradient id="paint0_linear_135_1858" x1="2.09851" y1="0.800781" x2="13.1126" y2="11.7272" gradientUnits="userSpaceOnUse">
<stop stop-color="#00B9FF"/>
<stop offset="1" stop-color="#0045DA"/>
</linearGradient>
<linearGradient id="paint1_linear_135_1858" x1="7.73828" y1="6.03906" x2="11.0884" y2="9.67118" gradientUnits="userSpaceOnUse">
<stop stop-color="white"/>
<stop offset="1" stop-color="white" stop-opacity="0"/>
</linearGradient>
<clipPath id="clip0_135_1858">
<rect width="16" height="16" fill="white"/>
</clipPath>
</defs>
</svg>
