<svg width="16" height="16" viewBox="0 0 16 16" fill="none" xmlns="http://www.w3.org/2000/svg">
<g clip-path="url(#clip0_126_385)">
<g filter="url(#filter0_f_126_385)">
<path d="M3.22266 11.4766C4.6416 12.7883 8.53937 14.6248 12.7789 11.4766" stroke="#AE4E97" stroke-opacity="0.2" stroke-width="4" stroke-linecap="round"/>
</g>
<g filter="url(#filter1_d_126_385)">
<path d="M12.46 10.7803C12.5966 10.7803 12.7276 10.835 12.8242 10.9316C12.9208 11.0283 12.9756 11.1593 12.9756 11.2959C12.9755 11.4324 12.9208 11.5636 12.8242 11.6602C12.7276 11.7566 12.5965 11.8105 12.46 11.8105H2.57031C2.43381 11.8105 2.30266 11.7566 2.20605 11.6602C2.1095 11.5636 2.05478 11.4324 2.05469 11.2959C2.05469 11.1592 2.10942 11.0283 2.20605 10.9316C2.30269 10.835 2.43365 10.7803 2.57031 10.7803H12.46ZM12.1758 0.800781C12.6174 0.801003 12.9755 1.15898 12.9756 1.60059V8.3584C12.9738 8.67516 12.8467 8.97881 12.6221 9.20215C12.3974 9.42544 12.0931 9.55079 11.7764 9.55078H3.24023C2.92565 9.54807 2.6242 9.42129 2.40234 9.19824C2.18048 8.9751 2.05559 8.67307 2.05469 8.3584V1.97949C2.05916 1.6672 2.18574 1.36864 2.40723 1.14844C2.62871 0.928246 2.92793 0.803442 3.24023 0.800781H12.1758Z" fill="url(#paint0_linear_126_385)"/>
</g>
<rect x="3.22266" y="5.37231" width="0.6" height="3.17285" rx="0.3" fill="white"/>
<rect x="4.82263" y="6.60864" width="0.6" height="1.93652" rx="0.3" fill="white"/>
<rect x="6.42261" y="7.27905" width="0.6" height="1.26611" rx="0.3" fill="white"/>
<path fill-rule="evenodd" clip-rule="evenodd" d="M10.5888 2.61528L11.6044 2.93657C11.7283 2.97575 11.803 3.08653 11.8017 3.20708C11.8043 3.23024 11.8058 3.25412 11.8027 3.27837L11.6591 4.38579C11.6378 4.55004 11.4869 4.66913 11.3222 4.65142C11.1576 4.6336 11.0412 4.48559 11.0625 4.32134L11.1328 3.77349L9.50093 4.78813C9.43867 4.84473 9.35645 4.87492 9.2734 4.87407C9.19012 4.87483 9.10713 4.84511 9.04488 4.78813L7.4189 3.77837L5.91402 4.71392C5.77328 4.80134 5.57857 4.76465 5.47945 4.63188C5.3805 4.49914 5.41398 4.32083 5.55465 4.23345L7.20601 3.20806C7.24296 3.18511 7.2835 3.17045 7.32515 3.16411C7.41677 3.13189 7.52192 3.13854 7.60738 3.19145L9.2734 4.22661L10.7656 3.29888L10.3759 3.17583C10.2181 3.12588 10.1376 2.96049 10.1962 2.80571C10.2551 2.65092 10.4309 2.56545 10.5888 2.61528Z" fill="white"/>
<foreignObject x="5.93828" y="4.23906" width="9.8135" height="10.1637"><div xmlns="http://www.w3.org/1999/xhtml" style="backdrop-filter:blur(0.9px);clip-path:url(#bgblur_1_126_385_clip_path);height:100%;width:100%"></div></foreignObject><g data-figma-bg-blur-radius="1.8">
<rect x="7.73828" y="6.03906" width="6.21346" height="6.56363" rx="1" fill="white" fill-opacity="0.2"/>
<rect x="7.83828" y="6.13906" width="6.01346" height="6.36363" rx="0.9" stroke="url(#paint1_linear_126_385)" stroke-opacity="0.5" stroke-width="0.2"/>
</g>
<path d="M12.2269 10.572C12.2651 10.572 12.3025 10.587 12.3295 10.614C12.3563 10.641 12.3714 10.6775 12.3715 10.7156C12.3715 10.7536 12.3563 10.7902 12.3295 10.8171C12.3025 10.8442 12.2651 10.8601 12.2269 10.8601H9.46228C9.42425 10.86 9.38762 10.844 9.36072 10.8171C9.33387 10.7902 9.31873 10.7537 9.31873 10.7156C9.31874 10.6775 9.33385 10.641 9.36072 10.614C9.38762 10.5871 9.42425 10.5721 9.46228 10.572H12.2269ZM10.9945 7.78198C11.0326 7.78202 11.0691 7.79712 11.0961 7.82397C11.1231 7.85099 11.1381 7.88831 11.1381 7.92651C11.1379 7.96455 11.123 8.00117 11.0961 8.02808C11.0691 8.05496 11.0326 8.07003 10.9945 8.07007H9.64978C9.63893 8.07074 9.62835 8.07525 9.62048 8.08276C9.61273 8.09024 9.60799 8.10038 9.60681 8.11108V9.89429C9.60703 9.90583 9.61155 9.91718 9.61951 9.92554C9.62747 9.93385 9.6383 9.93942 9.64978 9.94019H10.0482V9.21655C10.0482 9.19617 10.0521 9.17582 10.0599 9.15698C10.0678 9.13811 10.0797 9.12065 10.0941 9.1062C10.1085 9.09187 10.1261 9.08077 10.1449 9.073C10.1637 9.06526 10.1841 9.06128 10.2045 9.06128C10.2248 9.06133 10.2453 9.06523 10.264 9.073C10.2826 9.08075 10.2996 9.09202 10.3138 9.1062C10.3283 9.12064 10.3402 9.13813 10.348 9.15698C10.3558 9.17582 10.3597 9.19616 10.3597 9.21655V9.94019H10.7328V9.4314C10.7359 9.39229 10.7538 9.35552 10.7826 9.32886C10.8115 9.30216 10.8497 9.28789 10.889 9.28784C10.9284 9.28784 10.9666 9.30218 10.9955 9.32886C11.0243 9.35552 11.0421 9.39226 11.0453 9.4314V9.94116H11.4183V9.5564C11.4185 9.49984 11.4825 9.46069 11.5746 9.46069C11.6666 9.46075 11.7307 9.49893 11.7308 9.5564V9.94116H12.0365C12.0425 9.94126 12.0485 9.93948 12.0541 9.93726C12.0598 9.935 12.0653 9.93178 12.0697 9.92749C12.0739 9.92333 12.0771 9.91828 12.0795 9.91284C12.0818 9.90719 12.0834 9.90042 12.0834 9.89429V9.05933C12.0834 9.02126 12.0985 8.98475 12.1254 8.95776C12.1523 8.93085 12.1889 8.91491 12.2269 8.91479C12.2651 8.91479 12.3025 8.93075 12.3295 8.95776C12.3563 8.98474 12.3715 9.02129 12.3715 9.05933V9.89429C12.371 9.98284 12.3356 10.0682 12.2728 10.1306C12.2101 10.193 12.125 10.2282 12.0365 10.2283H9.64978C9.5621 10.2275 9.47831 10.1917 9.41638 10.1296C9.35436 10.0673 9.31898 9.98225 9.31873 9.89429V8.11108C9.32006 8.02398 9.35562 7.9411 9.41736 7.87964C9.47922 7.81814 9.56256 7.78278 9.64978 7.78198H10.9945ZM12.2152 8.01343C12.2318 8.01285 12.2485 8.01538 12.264 8.02124C12.2799 8.02727 12.2948 8.03684 12.307 8.04858C12.3191 8.06023 12.3287 8.07419 12.3353 8.0896C12.3419 8.10518 12.3451 8.12247 12.3451 8.1394V8.44897C12.3449 8.4657 12.3419 8.48243 12.3353 8.4978C12.3287 8.51318 12.319 8.52717 12.307 8.53882C12.2948 8.55054 12.2798 8.56008 12.264 8.56616C12.2485 8.57211 12.2319 8.57443 12.2152 8.57397C12.1817 8.5737 12.1491 8.56059 12.1254 8.53687C12.1033 8.5148 12.0903 8.48499 12.0883 8.45386L11.5707 8.83862C11.546 8.85697 11.5155 8.86624 11.4847 8.86597C11.4553 8.86475 11.4269 8.85544 11.4027 8.83862L11.0043 8.573L10.6556 8.83862C10.6385 8.8516 10.6182 8.86017 10.597 8.86401C10.5759 8.86785 10.5542 8.86622 10.5336 8.86011C10.5109 8.85297 10.4905 8.84002 10.475 8.82202C10.4594 8.8039 10.4493 8.78116 10.4457 8.75757C10.4422 8.73407 10.4451 8.71007 10.4545 8.68823C10.4639 8.66636 10.4789 8.64717 10.4984 8.63354L10.9144 8.31909C10.937 8.29968 10.9657 8.28796 10.9955 8.28687C11.0253 8.28582 11.0546 8.29548 11.0785 8.31323L11.4779 8.58179L11.9095 8.26245C11.8816 8.25365 11.8573 8.2351 11.8412 8.21069C11.8251 8.18633 11.8179 8.15674 11.8207 8.12769C11.8236 8.09871 11.8364 8.0713 11.8568 8.05054C11.8772 8.02988 11.9042 8.0168 11.933 8.01343H12.2152Z" fill="white"/>
</g>
<defs>
<filter id="filter0_f_126_385" x="-1.37734" y="6.87632" width="18.7564" height="10.9429" filterUnits="userSpaceOnUse" color-interpolation-filters="sRGB">
<feFlood flood-opacity="0" result="BackgroundImageFix"/>
<feBlend mode="normal" in="SourceGraphic" in2="BackgroundImageFix" result="shape"/>
<feGaussianBlur stdDeviation="1.3" result="effect1_foregroundBlur_126_385"/>
</filter>
<filter id="filter1_d_126_385" x="0.0546875" y="-0.199219" width="14.9209" height="15.0098" filterUnits="userSpaceOnUse" color-interpolation-filters="sRGB">
<feFlood flood-opacity="0" result="BackgroundImageFix"/>
<feColorMatrix in="SourceAlpha" type="matrix" values="0 0 0 0 0 0 0 0 0 0 0 0 0 0 0 0 0 0 127 0" result="hardAlpha"/>
<feOffset dy="1"/>
<feGaussianBlur stdDeviation="1"/>
<feComposite in2="hardAlpha" operator="out"/>
<feColorMatrix type="matrix" values="0 0 0 0 1 0 0 0 0 1 0 0 0 0 1 0 0 0 0.8 0"/>
<feBlend mode="normal" in2="BackgroundImageFix" result="effect1_dropShadow_126_385"/>
<feBlend mode="normal" in="SourceGraphic" in2="effect1_dropShadow_126_385" result="shape"/>
</filter>
<clipPath id="bgblur_1_126_385_clip_path" transform="translate(-5.93828 -4.23906)"><rect x="7.73828" y="6.03906" width="6.21346" height="6.56363" rx="1"/>
</clipPath><linearGradient id="paint0_linear_126_385" x1="2.09814" y1="0.800781" x2="13.1065" y2="11.6334" gradientUnits="userSpaceOnUse">
<stop stop-color="#E22AB6"/>
<stop offset="1" stop-color="#8F006D"/>
</linearGradient>
<linearGradient id="paint1_linear_126_385" x1="7.73828" y1="6.03906" x2="11.0884" y2="9.67118" gradientUnits="userSpaceOnUse">
<stop stop-color="white"/>
<stop offset="1" stop-color="white" stop-opacity="0"/>
</linearGradient>
<clipPath id="clip0_126_385">
<rect width="16" height="16" fill="white"/>
</clipPath>
</defs>
</svg>
