<svg width="16" height="16" viewBox="0 0 16 16" fill="none" xmlns="http://www.w3.org/2000/svg">
<g clip-path="url(#clip0_60_207)">
<g filter="url(#filter0_f_60_207)">
<path d="M3.22266 11.4766C4.6416 12.7883 8.53937 14.6248 12.7789 11.4766" stroke="#AE4E97" stroke-opacity="0.2" stroke-width="4" stroke-linecap="round"/>
</g>
<g filter="url(#filter1_d_60_207)">
<path d="M2.05469 1.30078C2.05469 1.02464 2.27855 0.800781 2.55469 0.800781H12.5692C12.8453 0.800781 13.0692 1.02464 13.0692 1.30078V11.3152C13.0692 11.5914 12.8453 11.8152 12.5692 11.8152H2.55469C2.27854 11.8152 2.05469 11.5914 2.05469 11.3152V1.30078Z" fill="#E4F1FF"/>
</g>
<g filter="url(#filter2_d_60_207)">
<path d="M6.47587 7.34709C6.47587 7.45754 6.56541 7.54709 6.67587 7.54709H12.8619C12.9724 7.54709 13.0619 7.63663 13.0619 7.74709V8.87129C13.0619 8.98175 12.9724 9.07129 12.8619 9.07129H5.97754H5.17754C5.06708 9.07129 4.97754 8.98175 4.97754 8.87129V1.00078C4.97754 0.890324 5.06708 0.800781 5.17754 0.800781H6.27587C6.38632 0.800781 6.47587 0.890324 6.47587 1.00078V7.34709Z" fill="url(#paint0_linear_60_207)"/>
</g>
<path d="M4.9722 11.8152L4.9722 0.805185" stroke="#3A3A3A" stroke-width="0.8"/>
<path d="M13.0692 9.07642L2.05918 9.07642" stroke="#3A3A3A" stroke-width="0.8"/>
<path d="M10.5044 11.8152L10.5044 0.805185" stroke="#3A3A3A" stroke-width="0.8"/>
<path d="M13.0692 3.54443L2.05918 3.54443" stroke="#3A3A3A" stroke-width="0.8"/>
<foreignObject x="5.93828" y="4.23906" width="9.81347" height="10.1637"><div xmlns="http://www.w3.org/1999/xhtml" style="backdrop-filter:blur(0.9px);clip-path:url(#bgblur_1_60_207_clip_path);height:100%;width:100%"></div></foreignObject><g data-figma-bg-blur-radius="1.8">
<rect x="7.73828" y="6.03906" width="6.21346" height="6.56363" rx="1" fill="#FFA1E8" fill-opacity="0.2"/>
<rect x="7.83828" y="6.13906" width="6.01346" height="6.36363" rx="0.9" stroke="url(#paint1_linear_60_207)" stroke-opacity="0.5" stroke-width="0.2"/>
</g>
<path d="M13.0224 10.2854H8.66761" stroke="white" stroke-width="0.3"/>
<path d="M9.88068 11.4983L9.88068 7.14347" stroke="white" stroke-width="0.3"/>
<path d="M13.0224 8.35669H8.66761" stroke="white" stroke-width="0.3"/>
<path d="M11.8094 11.4983L11.8094 7.14347" stroke="white" stroke-width="0.3"/>
</g>
<defs>
<filter id="filter0_f_60_207" x="-1.37734" y="6.87632" width="18.7564" height="10.9429" filterUnits="userSpaceOnUse" color-interpolation-filters="sRGB">
<feFlood flood-opacity="0" result="BackgroundImageFix"/>
<feBlend mode="normal" in="SourceGraphic" in2="BackgroundImageFix" result="shape"/>
<feGaussianBlur stdDeviation="1.3" result="effect1_foregroundBlur_60_207"/>
</filter>
<filter id="filter1_d_60_207" x="0.0546875" y="-0.199219" width="15.0145" height="15.0144" filterUnits="userSpaceOnUse" color-interpolation-filters="sRGB">
<feFlood flood-opacity="0" result="BackgroundImageFix"/>
<feColorMatrix in="SourceAlpha" type="matrix" values="0 0 0 0 0 0 0 0 0 0 0 0 0 0 0 0 0 0 127 0" result="hardAlpha"/>
<feOffset dy="1"/>
<feGaussianBlur stdDeviation="1"/>
<feComposite in2="hardAlpha" operator="out"/>
<feColorMatrix type="matrix" values="0 0 0 0 1 0 0 0 0 1 0 0 0 0 1 0 0 0 0.8 0"/>
<feBlend mode="normal" in2="BackgroundImageFix" result="effect1_dropShadow_60_207"/>
<feBlend mode="normal" in="SourceGraphic" in2="effect1_dropShadow_60_207" result="shape"/>
</filter>
<filter id="filter2_d_60_207" x="2.97754" y="-0.199219" width="12.0844" height="12.2705" filterUnits="userSpaceOnUse" color-interpolation-filters="sRGB">
<feFlood flood-opacity="0" result="BackgroundImageFix"/>
<feColorMatrix in="SourceAlpha" type="matrix" values="0 0 0 0 0 0 0 0 0 0 0 0 0 0 0 0 0 0 127 0" result="hardAlpha"/>
<feOffset dy="1"/>
<feGaussianBlur stdDeviation="1"/>
<feComposite in2="hardAlpha" operator="out"/>
<feColorMatrix type="matrix" values="0 0 0 0 1 0 0 0 0 1 0 0 0 0 1 0 0 0 0.8 0"/>
<feBlend mode="normal" in2="BackgroundImageFix" result="effect1_dropShadow_60_207"/>
<feBlend mode="normal" in="SourceGraphic" in2="effect1_dropShadow_60_207" result="shape"/>
</filter>
<clipPath id="bgblur_1_60_207_clip_path" transform="translate(-5.93828 -4.23906)"><rect x="7.73828" y="6.03906" width="6.21346" height="6.56363" rx="1"/>
</clipPath><linearGradient id="paint0_linear_60_207" x1="5.01308" y1="0.800782" x2="13.2639" y2="9.64124" gradientUnits="userSpaceOnUse">
<stop stop-color="#E22AB6"/>
<stop offset="1" stop-color="#8F006D"/>
</linearGradient>
<linearGradient id="paint1_linear_60_207" x1="7.73828" y1="6.03906" x2="11.0884" y2="9.67118" gradientUnits="userSpaceOnUse">
<stop stop-color="white"/>
<stop offset="1" stop-color="white" stop-opacity="0"/>
</linearGradient>
<clipPath id="clip0_60_207">
<rect width="16" height="16" fill="white"/>
</clipPath>
</defs>
</svg>
