<svg width="16" height="16" viewBox="0 0 16 16" fill="none" xmlns="http://www.w3.org/2000/svg">
<g clip-path="url(#clip0_139_83)">
<g filter="url(#filter0_f_139_83)">
<path d="M3.22266 11.4766C4.6416 12.7883 8.53937 14.6248 12.7789 11.4766" stroke="#016FE8" stroke-opacity="0.2" stroke-width="4" stroke-linecap="round"/>
</g>
<path d="M6.66016 0.773926C6.93619 0.774058 7.16016 0.997865 7.16016 1.27393V2.53955H12.5693C12.8454 2.53965 13.0693 2.76347 13.0693 3.03955V9.52295C13.0692 9.79895 12.8453 10.0228 12.5693 10.0229H6.08594C5.80986 10.0229 5.58604 9.79901 5.58594 9.52295V6.6958H2.55469C2.27855 6.6958 2.05469 6.47194 2.05469 6.1958V1.27393C2.05469 0.997783 2.27855 0.773926 2.55469 0.773926H6.66016Z" fill="url(#paint0_linear_139_83)"/>
<rect x="2.46509" y="1.07324" width="4.28418" height="0.954834" rx="0.2" fill="white"/>
<rect x="6.01904" y="2.99756" width="6.75977" height="0.954834" rx="0.2" fill="white"/>
<foreignObject x="5.93828" y="4.23906" width="9.81338" height="10.1637"><div xmlns="http://www.w3.org/1999/xhtml" style="backdrop-filter:blur(0.9px);clip-path:url(#bgblur_1_139_83_clip_path);height:100%;width:100%"></div></foreignObject><g data-figma-bg-blur-radius="1.8">
<rect x="7.73828" y="6.03906" width="6.21346" height="6.56363" rx="1" fill="white" fill-opacity="0.2"/>
<rect x="7.83828" y="6.13906" width="6.01346" height="6.36363" rx="0.9" stroke="url(#paint1_linear_139_83)" stroke-opacity="0.5" stroke-width="0.2"/>
</g>
<path d="M10.5286 8.83887H12.6946V11.1182H9.93774V9.80273H8.99536V7.52344H10.5286V8.83887ZM10.5286 9.31445V9.80273H10.1379V10.918H12.4944V9.31445H10.5286ZM10.1379 9.60254H10.3284V9.31445H10.1379V9.60254ZM9.19556 9.60254H9.93774V8.83887H10.3284V8H9.19556V9.60254Z" fill="white"/>
</g>
<defs>
<filter id="filter0_f_139_83" x="-1.37734" y="6.87632" width="18.7564" height="10.9429" filterUnits="userSpaceOnUse" color-interpolation-filters="sRGB">
<feFlood flood-opacity="0" result="BackgroundImageFix"/>
<feBlend mode="normal" in="SourceGraphic" in2="BackgroundImageFix" result="shape"/>
<feGaussianBlur stdDeviation="1.3" result="effect1_foregroundBlur_139_83"/>
</filter>
<clipPath id="bgblur_1_139_83_clip_path" transform="translate(-5.93828 -4.23906)"><rect x="7.73828" y="6.03906" width="6.21346" height="6.56363" rx="1"/>
</clipPath><linearGradient id="paint0_linear_139_83" x1="2.075" y1="0.773926" x2="7.9252" y2="5.77722" gradientUnits="userSpaceOnUse">
<stop stop-color="#00B9FF"/>
<stop offset="1" stop-color="#0045DA"/>
</linearGradient>
<linearGradient id="paint1_linear_139_83" x1="7.73828" y1="6.03906" x2="11.0884" y2="9.67118" gradientUnits="userSpaceOnUse">
<stop stop-color="white"/>
<stop offset="1" stop-color="white" stop-opacity="0"/>
</linearGradient>
<clipPath id="clip0_139_83">
<rect width="16" height="16" fill="white"/>
</clipPath>
</defs>
</svg>
