<svg width="16" height="16" viewBox="0 0 16 16" fill="none" xmlns="http://www.w3.org/2000/svg">
<g clip-path="url(#clip0_135_1899)">
<g filter="url(#filter0_f_135_1899)">
<path d="M3.22266 11.4766C4.6416 12.7883 8.53937 14.6248 12.7789 11.4766" stroke="#AE4E97" stroke-opacity="0.2" stroke-width="4" stroke-linecap="round"/>
</g>
<g filter="url(#filter1_d_135_1899)">
<rect x="2.05469" y="0.800781" width="11.0145" height="11.0145" rx="0.5" fill="url(#paint0_linear_135_1899)"/>
</g>
<rect x="3.38574" y="2.7561" width="6.77173" height="0.711426" rx="0.355713" fill="white"/>
<rect x="3.38574" y="4.91064" width="3.57642" height="0.711426" rx="0.355713" fill="white"/>
<rect x="3.38574" y="7.06519" width="3.57642" height="0.711426" rx="0.355713" fill="white"/>
<foreignObject x="5.93828" y="4.23906" width="9.82852" height="10.1637"><div xmlns="http://www.w3.org/1999/xhtml" style="backdrop-filter:blur(0.9px);clip-path:url(#bgblur_1_135_1899_clip_path);height:100%;width:100%"></div></foreignObject><g data-figma-bg-blur-radius="1.8">
<path d="M13.2825 6.70489H10.8427C10.8427 6.33791 10.5438 6.03906 10.1769 6.03906H9.73337C9.36639 6.03906 9.06754 6.33791 9.06754 6.70489H8.40411C8.03713 6.70489 7.73828 7.00373 7.73828 7.37072L7.75677 11.937C7.75677 12.3039 8.05562 12.6028 8.4226 12.6028H13.3009C13.6679 12.6028 13.9668 12.3039 13.9668 11.937L13.9483 7.37072C13.9471 7.00373 13.6482 6.70489 13.2825 6.70489Z" fill="white" fill-opacity="0.2"/>
<path d="M9.7334 6.13867H10.1768C10.4885 6.13867 10.7432 6.39332 10.7432 6.70508V6.80469H13.2822C13.5926 6.80469 13.8476 7.05891 13.8486 7.37109L13.8672 11.9375C13.8669 12.249 13.6124 12.5029 13.3008 12.5029H8.42285C8.1111 12.5029 7.85645 12.2483 7.85645 11.9365L7.83789 7.37109C7.83789 7.05934 8.09254 6.80469 8.4043 6.80469H9.16797V6.70508C9.16797 6.39332 9.42165 6.13867 9.7334 6.13867Z" stroke="url(#paint1_linear_135_1899)" stroke-opacity="0.5" stroke-width="0.2"/>
</g>
<circle cx="10.1576" cy="9.74036" r="1.06799" fill="white"/>
<circle cx="12.6631" cy="8.18945" r="0.406006" fill="white"/>
</g>
<defs>
<filter id="filter0_f_135_1899" x="-1.37734" y="6.87632" width="18.7564" height="10.9429" filterUnits="userSpaceOnUse" color-interpolation-filters="sRGB">
<feFlood flood-opacity="0" result="BackgroundImageFix"/>
<feBlend mode="normal" in="SourceGraphic" in2="BackgroundImageFix" result="shape"/>
<feGaussianBlur stdDeviation="1.3" result="effect1_foregroundBlur_135_1899"/>
</filter>
<filter id="filter1_d_135_1899" x="0.0546875" y="-0.199219" width="15.0144" height="15.0144" filterUnits="userSpaceOnUse" color-interpolation-filters="sRGB">
<feFlood flood-opacity="0" result="BackgroundImageFix"/>
<feColorMatrix in="SourceAlpha" type="matrix" values="0 0 0 0 0 0 0 0 0 0 0 0 0 0 0 0 0 0 127 0" result="hardAlpha"/>
<feOffset dy="1"/>
<feGaussianBlur stdDeviation="1"/>
<feComposite in2="hardAlpha" operator="out"/>
<feColorMatrix type="matrix" values="0 0 0 0 1 0 0 0 0 1 0 0 0 0 1 0 0 0 0.8 0"/>
<feBlend mode="normal" in2="BackgroundImageFix" result="effect1_dropShadow_135_1899"/>
<feBlend mode="normal" in="SourceGraphic" in2="effect1_dropShadow_135_1899" result="shape"/>
</filter>
<clipPath id="bgblur_1_135_1899_clip_path" transform="translate(-5.93828 -4.23906)"><path d="M13.2825 6.70489H10.8427C10.8427 6.33791 10.5438 6.03906 10.1769 6.03906H9.73337C9.36639 6.03906 9.06754 6.33791 9.06754 6.70489H8.40411C8.03713 6.70489 7.73828 7.00373 7.73828 7.37072L7.75677 11.937C7.75677 12.3039 8.05562 12.6028 8.4226 12.6028H13.3009C13.6679 12.6028 13.9668 12.3039 13.9668 11.937L13.9483 7.37072C13.9471 7.00373 13.6482 6.70489 13.2825 6.70489Z"/>
</clipPath><linearGradient id="paint0_linear_135_1899" x1="2.09851" y1="0.800781" x2="13.1126" y2="11.7272" gradientUnits="userSpaceOnUse">
<stop stop-color="#E22AB6"/>
<stop offset="1" stop-color="#8F006D"/>
</linearGradient>
<linearGradient id="paint1_linear_135_1899" x1="7.73828" y1="6.03906" x2="11.0878" y2="9.67925" gradientUnits="userSpaceOnUse">
<stop stop-color="white"/>
<stop offset="1" stop-color="white" stop-opacity="0"/>
</linearGradient>
<clipPath id="clip0_135_1899">
<rect width="16" height="16" fill="white"/>
</clipPath>
</defs>
</svg>
